<svg xmlns="http://www.w3.org/2000/svg" xmlns:xlink="http://www.w3.org/1999/xlink" xmlns:lucid="lucid" width="1184" height="1103"><g transform="translate(-457 -257)" lucid:page-tab-id="0_0"><path d="M460 266c0-3.3 2.7-6 6-6h1168c3.3 0 6 2.7 6 6v1088c0 3.3-2.7 6-6 6H466c-3.3 0-6-2.7-6-6z" stroke="#232f3e" stroke-width="3" fill="#edf5ff"/><path d="M460 260h56v56h-56v-56z" stroke="#fff" stroke-opacity="0" fill="#232f3e"/><path d="M500.88 301.22h-25c-4.13.05-7.57-3.1-7.9-7.2v-.64c-.15-3.4 1.97-6.38 5.25-7.36v-.66c.12-4.22 2.44-7.75 6.24-9.57 4.12-1.86 8.73-.96 11.8 2.3 1.1 1.1 1.85 2.2 2.45 3.6 1.2-1 2.72-1.32 4.24-.9 2.24.8 3.68 2.74 3.76 5.1 3.68.65 6.32 3.8 6.28 7.56 0 7.07-7.04 7.73-7.12 7.76zm-26.7-13.88c-2.83.6-4.75 3.14-4.6 6.04v.53c.3 3.33 3.1 5.84 6.4 5.76h24.98c3.04-.3 5.4-2.64 5.68-5.7.28-3.43-2.24-6.5-5.68-6.78-.44-.05-.72-.44-.64-.87.08-1.83-1-3.44-2.72-4.13-1.32-.37-2.64.13-3.44 1.24-.2.25-.44.38-.76.33-.28-.05-.48-.24-.6-.5-.6-1.6-1.4-2.85-2.6-4.04-2.68-2.8-6.6-3.6-10.13-2-3.24 1.6-5.2 4.63-5.32 8.24-.04.4-.04.74 0 1.14.04.4-.2.76-.6.84z" stroke="#fff" stroke-opacity="0" fill="#fff"/><use xlink:href="#a" transform="matrix(1,0,0,1,531,280) translate(0 17.955555555555552)"/><use xlink:href="#b" transform="matrix(1,0,0,1,531,280) translate(69.57777777777777 17.955555555555552)"/><use xlink:href="#c" transform="matrix(1,0,0,1,531,280) translate(165.27839506172836 17.955555555555552)"/><path d="M1120 826c0-3.3 2.7-6 6-6h168c3.3 0 6 2.7 6 6v88c0 3.3-2.7 6-6 6h-168c-3.3 0-6-2.7-6-6z" stroke="#5e5e5e" stroke-width="3" fill="#ffdda6"/><use xlink:href="#d" transform="matrix(1,0,0,1,1132,832) translate(6.456790123456798 29.65277777777778)"/><use xlink:href="#e" transform="matrix(1,0,0,1,1132,832) translate(32.413580246913575 56.31944444444445)"/><path d="M1120 1186c0-3.3 2.7-6 6-6h168c3.3 0 6 2.7 6 6v88c0 3.3-2.7 6-6 6h-168c-3.3 0-6-2.7-6-6z" stroke="#5e5e5e" stroke-width="3" fill="#ffdda6"/><use xlink:href="#f" transform="matrix(1,0,0,1,1132,1192) translate(-1.4444444444444287 42.44444444444444)"/><path d="M1120 286c0-3.3 2.7-6 6-6h168c3.3 0 6 2.7 6 6v88c0 3.3-2.7 6-6 6h-168c-3.3 0-6-2.7-6-6z" stroke="#5e5e5e" stroke-width="3" fill="#ffdda6"/><use xlink:href="#g" transform="matrix(1,0,0,1,1132,292) translate(6.518518518518519 41.52777777777778)"/><path d="M800 646c0-3.3 2.7-6 6-6h168c3.3 0 6 2.7 6 6v88c0 3.3-2.7 6-6 6H806c-3.3 0-6-2.7-6-6z" stroke="#5e5e5e" stroke-width="3" fill="#ffdda6"/><use xlink:href="#h" transform="matrix(1,0,0,1,812,652) translate(13.925925925925924 41.52777777777778)"/><path d="M1120 646c0-3.3 2.7-6 6-6h168c3.3 0 6 2.7 6 6v88c0 3.3-2.7 6-6 6h-168c-3.3 0-6-2.7-6-6z" stroke="#5e5e5e" stroke-width="3" fill="#ffdda6"/><use xlink:href="#i" transform="matrix(1,0,0,1,1132,652) translate(15.592592592592595 41.52777777777778)"/><path d="M1120 466c0-3.3 2.7-6 6-6h168c3.3 0 6 2.7 6 6v88c0 3.3-2.7 6-6 6h-168c-3.3 0-6-2.7-6-6z" stroke="#5e5e5e" stroke-width="3" fill="#ffdda6"/><use xlink:href="#j" transform="matrix(1,0,0,1,1132,472) translate(42.90740740740741 41.52777777777778)"/><path d="M480 646c0-3.3 2.7-6 6-6h168c3.3 0 6 2.7 6 6v88c0 3.3-2.7 6-6 6H486c-3.3 0-6-2.7-6-6z" stroke="#5e5e5e" stroke-width="3" fill="#ffdda6"/><use xlink:href="#k" transform="matrix(1,0,0,1,492,652) translate(36.086419753086425 41.52777777777778)"/><path d="M1120 1006c0-3.3 2.7-6 6-6h168c3.3 0 6 2.7 6 6v88c0 3.3-2.7 6-6 6h-168c-3.3 0-6-2.7-6-6z" stroke="#5e5e5e" stroke-width="3" fill="#ffdda6"/><use xlink:href="#l" transform="matrix(1,0,0,1,1132,1012) translate(41.05555555555556 41.52777777777778)"/><path d="M890 742.5V1224c0 3.3 2.7 6 6 6h204" stroke="#5e5e5e" stroke-width="2" fill="none"/><path d="M891 742.53h-2v-1.03h2z" stroke="#5e5e5e" stroke-width=".05" fill="#5e5e5e"/><path d="M1115.26 1230l-14.26 4.64v-9.28z" stroke="#5e5e5e" stroke-width="2" fill="#5e5e5e"/><use xlink:href="#m" transform="matrix(1,0,0,1,913.3697395420738,1204.6666666666667) translate(0 14.222222222222223)"/><use xlink:href="#n" transform="matrix(1,0,0,1,913.3697395420738,1204.6666666666667) translate(64.14814814814815 14.222222222222223)"/><path d="M890 742.5V864c0 3.3 2.7 6 6 6h204" stroke="#5e5e5e" stroke-width="2" fill="none"/><path d="M891 742.53h-2v-1.03h2z" stroke="#5e5e5e" stroke-width=".05" fill="#5e5e5e"/><path d="M1115.26 870l-14.26 4.64v-9.28z" stroke="#5e5e5e" stroke-width="2" fill="#5e5e5e"/><use xlink:href="#m" transform="matrix(1,0,0,1,948.7282752007671,844.6666666666667) translate(0 14.222222222222223)"/><use xlink:href="#n" transform="matrix(1,0,0,1,948.7282752007671,844.6666666666667) translate(64.14814814814815 14.222222222222223)"/><path d="M1513.17 541.74H1500c-.96 0-1.77-.8-1.77-1.77v-13.32c0-.98.8-1.77 1.78-1.77h13.17c.97 0 1.77.8 1.77 1.77v13.32c0 .98-.8 1.77-1.77 1.77zm-11.38-3.56h9.58v-9.74h-9.6zM1530.62 535.16c-5.13 0-9.32-4.13-9.34-9.27-.02-5.14 4.13-9.33 9.27-9.35 5.13-.02 9.32 4.13 9.34 9.27v.03c0 5.14-4.14 9.3-9.28 9.3zm0-15.06h-.03c-3.2 0-5.76 2.57-5.76 5.75s2.56 5.75 5.75 5.75c3.17 0 5.74-2.57 5.74-5.75 0-3.16-2.55-5.75-5.72-5.75zM1511.48 518.43h-16.63c-.67 0-1.23-.33-1.56-.9-.33-.56-.33-1.2 0-1.78l8.33-13.88c.5-.84 1.6-1.1 2.44-.6.24.16.45.34.6.6l8.32 13.88c.32.57.32 1.22 0 1.78-.33.55-.88.88-1.52.9zm-13.5-3.55h10.37l-5.2-8.64z" stroke="#fff" stroke-opacity="0" fill="#3f8624"/><path d="M1517.6 551.72c-11.3 0-29.3-2.57-29.54-9.48l-8.06-59.7c-.15-.98.45-1.9 1.43-2.12.98-.15 1.96.5 2.2 1.5.8 3.42 14.22 8.2 34.04 8.2 19.8 0 33.22-4.78 34.05-8.2.23-1 1.2-1.65 2.2-1.5.96.2 1.57 1.14 1.42 2.13l-8.22 59.7c0 2.34-2.18 4.34-6.25 5.98-1.88.7-3.54 1.2-5.5 1.64-6.18 1.35-11.45 1.85-17.78 1.85zm-33.3-64.32l7.23 54.55v.22c0 2.14 10.17 6.06 26 6.06 6 .07 11.06-.5 16.94-1.7 1.8-.44 3.3-.94 5.05-1.65 3.24-1.3 4-2.43 4-2.8v-.13l7.37-54.48c-6.86 4.07-20.73 6.28-33.38 6.28-12.66 0-26.37-2.28-33.23-6.35z" stroke="#fff" stroke-opacity="0" fill="#3f8624"/><path d="M1517.6 493.65c-16.78 0-35.66-3.8-37.54-10.86v-.97-.23c0-7.84 19.86-13.32 37.68-13.32s37.53 5.48 37.53 13.32v.23l-.08.73v.23c-1.9 7.04-20.76 10.85-37.6 10.85zm-34.08-11.67c1.13 3.42 14.44 8.12 34.07 8.12 19.62 0 32.93-4.7 34.06-8.12v-.48c-.15-3.45-14.22-9.67-34.07-9.67-19.86 0-33.85 6.22-34.15 9.67zM1555.34 518.2c-8.42 0-26.94-8.36-38.52-14.04l1.56-3.2c15.97 7.85 34.8 15.14 38.04 13.75-.26-.5-1.47-2.1-7.13-5.17l-.27-.17 1.77-3.1.26.18c5.7 3.13 8.42 5.54 8.9 7.82.17 1-.1 1.92-.74 2.7-1.08.98-2.4 1.42-3.88 1.24z" stroke="#fff" stroke-opacity="0" fill="#3f8624"/><path d="M1517.6 506.45c-2.12 0-3.85-1.73-3.85-3.85 0-2.13 1.73-3.86 3.86-3.86s3.86 1.73 3.86 3.86c0 2.12-1.73 3.84-3.85 3.85zm0-4.15c-.18 0-.32.13-.3.3 0 .34.6.34.6 0v-.04c0-.17-.12-.3-.3-.3z" stroke="#fff" stroke-opacity="0" fill="#3f8624"/><use xlink:href="#o" transform="matrix(1,0,0,1,1450,560.7209908735333) translate(-18.75 15.999999999999998)"/><use xlink:href="#p" transform="matrix(1,0,0,1,1450,560.7209908735333) translate(24.444444444444457 39.99999999999999)"/><use xlink:href="#q" transform="matrix(1,0,0,1,1450,560.7209908735333) translate(54.44444444444445 39.99999999999999)"/><path d="M1520 1265.35c-10.5 0-21.15-2.8-21.15-8.14v-36.1h3.34v36.1c0 1.65 6.25 4.8 17.8 4.8 11.5 0 17.8-3.2 17.8-4.8v-36.1h3.33v36.1c.05 5.36-10.6 8.15-21.14 8.15z" stroke="#fff" stroke-opacity="0" fill="#3b48cc"/><path d="M1509.67 1240.35c-6.97-1.4-10.8-3.95-10.8-7.2h3.33c0 .73 2 2.7 8.13 3.9zM1532.25 1239.9l-.82-3.22c4.67-1.18 6.4-2.8 6.4-3.52h3.34c0 2.9-3.17 5.3-8.92 6.75zM1520 1229.26c-10.5 0-21.17-2.8-21.17-8.14 0-5.38 10.67-8.18 21.16-8.18 10.53 0 21.15 2.8 21.15 8.18 0 5.35-10.62 8.14-21.16 8.14zm0-12.96c-11.52 0-17.82 3.17-17.82 4.82 0 1.63 6.3 4.8 17.8 4.8 11.52 0 17.83-3.17 17.83-4.8 0-1.65-6.26-4.82-17.8-4.82zM1519.98 1265.35c-10.5 0-21.15-2.8-21.15-8.15v-12.05c0-.92.76-1.66 1.65-1.66.93 0 1.7.73 1.7 1.65 0 .74 1.98 2.7 8.12 3.93l-.68 3.35c-2.75-.48-5-1.25-7.45-2.58v7.4c0 1.67 6.3 4.8 17.8 4.8 11.56 0 17.82-3.2 17.82-4.8v-7.47c-1.83 1.03-3.52 1.7-5.6 2.15l-.8-3.24c4.66-1.2 6.4-2.8 6.4-3.55 0-.92.75-1.66 1.68-1.66.9 0 1.65.73 1.65 1.65v12.05c.05 5.35-10.6 8.15-21.15 8.15zM1489.73 1237.05h-3.33v-4.7c0-.9.75-1.66 1.67-1.66h7.8v3.33h-6.14zM1553.6 1238.72h-9.37v-3.34h7.7v-1.33h-7.7v-3.35h9.37c.92 0 1.67.75 1.67 1.67v4.7c0 .92-.75 1.65-1.67 1.65z" stroke="#fff" stroke-opacity="0" fill="#3b48cc"/><path d="M1558.32 1238.72h-14.08v-3.34h12.4v-24.16c-3.52-1.2-5.44-5.02-4.24-8.6.72-2.1 2.16-3.6 4.24-4.3v-.32h-73.28v.26c2.88.84 4.8 3.5 4.72 6.53 0 3.03-1.84 5.58-4.72 6.47v24.1h12.4v3.35h-14.08c-.96 0-1.68-.74-1.68-1.67v-27.24c0-.9.72-1.66 1.68-1.66 1.76-.1 3.12-1.6 3.04-3.35.08-1.78-1.28-3.27-3.04-3.36-.96 0-1.68-.75-1.68-1.68v-3.44c0-.92.72-1.67 1.68-1.67h76.64c.96 0 1.68.75 1.68 1.67v3.44c0 .93-.72 1.68-1.68 1.68-1.76.1-3.04 1.58-2.96 3.3-.08 1.77 1.2 3.26 2.96 3.35.96 0 1.68.74 1.68 1.67V1237c0 .93-.72 1.72-1.6 1.72h-.08z" stroke="#fff" stroke-opacity="0" fill="#3b48cc"/><path d="M1508.45 1212.15h-3.33v-9.5c0-.92.74-1.67 1.66-1.67h10.92c.93 0 1.67.75 1.67 1.68v7.9h-3.34v-6.24h-7.58zM1535 1212.15h-3.34v-7.83h-7.6v6.24h-3.33v-7.9c0-.93.75-1.68 1.67-1.68h10.93c.93 0 1.67.75 1.67 1.68zM1548.92 1227.76h-4.7v-3.35h3.03v-20.04h-7.58v9.26h-3.34v-10.98c0-.9.74-1.66 1.67-1.66h10.92c.92 0 1.66.75 1.66 1.66v23.4c.02.94-.7 1.7-1.64 1.72h-.02zM1495.84 1227.76h-4.66c-.92 0-1.66-.75-1.66-1.66v-23.4c0-.93.74-1.68 1.66-1.68h10.92c.93 0 1.67.75 1.67 1.68v10.9h-3.34v-9.27h-7.58v20.06h3zM1512.97 1256.05v-21.93h8.07c1.95-.1 3.65.48 5.13 1.75 1.33 1.28 2 2.9 1.9 4.75.04 1.38-.3 2.57-1.08 3.7-.8 1.15-1.82 1.92-3.14 2.4l5.6 9.35h-3.82l-5-8.7h-3.85v8.7zm3.82-11.7h3.77c.3.04.57.04.9 0 1.75-.24 3-1.87 2.72-3.65.04-.3.06-.57 0-.9-.2-1.73-1.8-2.96-3.54-2.74h-3.87z" stroke="#fff" stroke-opacity="0" fill="#3b48cc"/><path d="M1481.74 1210.35l4.42-2.83v-5.42l-4.42-2.74v-2.63l76.3-.37v3.36l-4.13 2.38v5.42l4.13 2.83v27.04h-76.3z" stroke="#fff" stroke-opacity="0" stroke-width=".54" fill="#fff" fill-opacity="0"/><use xlink:href="#r" transform="matrix(1,0,0,1,1450,1274.3500000000001) translate(-28.611111111111086 17.77777777777778)"/><use xlink:href="#s" transform="matrix(1,0,0,1,1450,1274.3500000000001) translate(10.833333333333329 44.44444444444444)"/><use xlink:href="#t" transform="matrix(1,0,0,1,1450,1274.3500000000001) translate(21.975308641975303 71.11111111111111)"/><use xlink:href="#u" transform="matrix(1,0,0,1,1450,1274.3500000000001) translate(61.35802469135802 71.11111111111111)"/><path d="M1480 830h80v80h-80v-80z" stroke="#fff" stroke-opacity="0" stroke-width="2" fill="#693cc5"/><path d="M1504 859.07h-9.6c-.6 0-1.07.47-1.07 1.05v34.16c0 .58.48 1.05 1.07 1.05h9.6c.6 0 1.07-.47 1.07-1.05v-34.16c0-.58-.48-1.05-1.07-1.05zm-1.07 34.12h-7.46v-32h7.46zM1518.93 888.3v5.96c0 .6-.48 1.07-1.06 1.07h-9.6c-.6 0-1.07-.48-1.07-1.07v-18.4c.36 2.1 1.02 3.8 2.14 5.6v11.73h7.46v-5.6c.73.32 1.37.53 2.13.7zM1518.93 853.74v3.78c-.77.2-1.4.43-2.13.74v-3.46h-7.46v9.6c-1.12 1.8-1.78 3.5-2.14 5.6v-16.26c0-.6.48-1.07 1.07-1.07h9.6c.58 0 1.06.48 1.06 1.07zM1530.66 889.2v3.98h-7.46v-4.25c-.75 0-1.38-.05-2.13-.15v5.48c0 .6.48 1.07 1.06 1.07h9.6c.6 0 1.07-.46 1.07-1.07v-2.97zm1.07-45.07h-9.6c-.58 0-1.06.46-1.06 1.08v11.9c.75-.12 1.38-.17 2.13-.17v-10.65h7.46v12.5c.8.46 1.44.87 2.14 1.38V845.2c0-.6-.48-1.07-1.07-1.07zM1545.6 849.47h-9.6c-.6 0-1.07.48-1.07 1.07v11.57c.87.93 1.5 1.82 2.14 2.93v-13.4h7.46v32.75l2.14 2.15v-36c0-.58-.48-1.06-1.07-1.06z" stroke="#fff" stroke-opacity="0" stroke-width="2" fill="#fff"/><path d="M1545.37 888.3l-9.6-9.6c1.86-4.07 1.75-8.3-.34-12.3-3.6-6.73-11.96-9.3-18.73-5.74-6.76 3.58-9.38 11.94-5.8 18.73 3.6 6.77 11.97 9.35 18.77 5.77l9.42 9.44c1.74 1.74 4.55 1.74 6.27 0 1.75-1.72 1.75-4.52 0-6.26zm-33.9-15.4c0-6.45 5.23-11.72 11.74-11.72 6.47 0 11.74 5.27 11.74 11.72 0 6.5-5.27 11.76-11.73 11.76-6.5 0-11.73-5.27-11.73-11.76zm32.4 20.16c-.9.9-2.35.9-3.3 0l-9.07-9.1c1.3-.96 2.28-2 3.22-3.36l9.15 9.22c.9.88.9 2.36 0 3.24z" stroke="#fff" stroke-opacity="0" stroke-width="2" fill="#fff"/><path d="M1518.47 878c-3.1-2.2-3.8-6.52-1.6-9.6 2.23-3.1 6.53-3.82 9.62-1.6l.18.13-1.28 1.7c-2.1-1.55-5.1-1.1-6.65 1-1.56 2.12-1.12 5.1 1 6.66z" stroke="#fff" stroke-opacity="0" stroke-width="2" fill="#fff"/><use xlink:href="#r" transform="matrix(1,0,0,1,1450,919) translate(-28.611111111111086 17.77777777777778)"/><use xlink:href="#v" transform="matrix(1,0,0,1,1450,919) translate(4.043209876543202 44.44444444444444)"/><path d="M1302.5 1230h159" stroke="#5e5e5e" stroke-width="2" fill="none"/><path d="M1302.53 1231h-1.03v-2h1.03z" stroke="#5e5e5e" stroke-width=".05" fill="#5e5e5e"/><path d="M1476.76 1230l-14.26 4.64v-9.28z" stroke="#5e5e5e" stroke-width="2" fill="#5e5e5e"/><use xlink:href="#m" transform="matrix(1,0,0,1,1327.6141975308642,1204.6666666666667) translate(0 14.222222222222223)"/><use xlink:href="#n" transform="matrix(1,0,0,1,1327.6141975308642,1204.6666666666667) translate(64.14814814814815 14.222222222222223)"/><path d="M1302.5 870h159" stroke="#5e5e5e" stroke-width="2" fill="none"/><path d="M1302.53 871h-1.03v-2h1.03z" stroke="#5e5e5e" stroke-width=".05" fill="#5e5e5e"/><path d="M1476.76 870l-14.26 4.64v-9.28z" stroke="#5e5e5e" stroke-width="2" fill="#5e5e5e"/><use xlink:href="#m" transform="matrix(1,0,0,1,1327.6141975308642,844.6666666666667) translate(0 14.222222222222223)"/><use xlink:href="#n" transform="matrix(1,0,0,1,1327.6141975308642,844.6666666666667) translate(64.14814814814815 14.222222222222223)"/><path d="M662.5 690H780" stroke="#5e5e5e" stroke-width="2" fill="none"/><path d="M662.53 691h-1.03v-2h1.03z" stroke="#5e5e5e" stroke-width=".05" fill="#5e5e5e"/><path d="M795.26 690L781 694.64v-9.28z" stroke="#5e5e5e" stroke-width="2" fill="#5e5e5e"/><use xlink:href="#w" transform="matrix(1,0,0,1,668.0246913580247,638.698078417709) translate(0.005000000000002558 14.222222222222223)"/><use xlink:href="#x" transform="matrix(1,0,0,1,668.0246913580247,638.698078417709) translate(40.301296296296314 35.55555555555556)"/><use xlink:href="#y" transform="matrix(1,0,0,1,668.0246913580247,638.698078417709) translate(45.23956790123459 35.55555555555556)"/><path d="M982.5 690H1100" stroke="#5e5e5e" stroke-width="2" fill="none"/><path d="M982.53 691h-1.03v-2h1.03z" stroke="#5e5e5e" stroke-width=".05" fill="#5e5e5e"/><path d="M1115.26 690l-14.26 4.64v-9.28z" stroke="#5e5e5e" stroke-width="2" fill="#5e5e5e"/><use xlink:href="#m" transform="matrix(1,0,0,1,986.8641975308642,660.0314117510425) translate(0 14.222222222222223)"/><use xlink:href="#n" transform="matrix(1,0,0,1,986.8641975308642,660.0314117510425) translate(64.14814814814815 14.222222222222223)"/><path d="M1302.5 690H1410" stroke="#5e5e5e" stroke-width="2" fill="none"/><path d="M1302.53 691h-1.03v-2h1.03z" stroke="#5e5e5e" stroke-width=".05" fill="#5e5e5e"/><path d="M1425.26 690l-14.26 4.64v-9.28z" stroke="#5e5e5e" stroke-width="2" fill="#5e5e5e"/><use xlink:href="#z" transform="matrix(1,0,0,1,1321.6415080089355,664.6666666666666) translate(0 14.222222222222223)"/><use xlink:href="#A" transform="matrix(1,0,0,1,1321.6415080089355,664.6666666666666) translate(48.296296296296305 14.222222222222223)"/><path d="M1302.5 510h162.7" stroke="#5e5e5e" stroke-width="2" fill="none"/><path d="M1302.53 511h-1.03v-2h1.03z" stroke="#5e5e5e" stroke-width=".05" fill="#5e5e5e"/><path d="M1480.47 510l-14.27 4.64v-9.28z" stroke="#5e5e5e" stroke-width="2" fill="#5e5e5e"/><use xlink:href="#B" transform="matrix(1,0,0,1,1320.651585718269,484.6666666666667) translate(0 14.222222222222223)"/><use xlink:href="#C" transform="matrix(1,0,0,1,1320.651585718269,484.6666666666667) translate(48.296296296296305 14.222222222222223)"/><use xlink:href="#D" transform="matrix(1,0,0,1,1320.651585718269,484.6666666666667) translate(105.4814814814815 14.222222222222223)"/><path d="M890 637.5V516c0-3.3 2.7-6 6-6h204" stroke="#5e5e5e" stroke-width="2" fill="none"/><path d="M891 638.5h-2v-1.03h2z" stroke="#5e5e5e" stroke-width=".05" fill="#5e5e5e"/><path d="M1115.26 510l-14.26 4.64v-9.28z" stroke="#5e5e5e" stroke-width="2" fill="#5e5e5e"/><use xlink:href="#B" transform="matrix(1,0,0,1,929.3835014608342,484.6666666666667) translate(0 14.222222222222223)"/><use xlink:href="#C" transform="matrix(1,0,0,1,929.3835014608342,484.6666666666667) translate(48.296296296296305 14.222222222222223)"/><use xlink:href="#D" transform="matrix(1,0,0,1,929.3835014608342,484.6666666666667) translate(105.4814814814815 14.222222222222223)"/><path d="M1578 290c17.67 0 32 17.9 32 40s-14.33 40-32 40h-96c-17.67 0-32-17.9-32-40s14.33-40 32-40z" stroke="#5e5e5e" stroke-width="3" fill="#e3fae3"/><use xlink:href="#E" transform="matrix(1,0,0,1,1455,295) translate(47.870370370370374 39.65277777777778)"/><path d="M1302.5 330H1430" stroke="#5e5e5e" stroke-width="2" fill="none"/><path d="M1302.53 331h-1.03v-2h1.03z" stroke="#5e5e5e" stroke-width=".05" fill="#5e5e5e"/><path d="M1445.26 330l-14.26 4.64v-9.28z" stroke="#5e5e5e" stroke-width="2" fill="#5e5e5e"/><use xlink:href="#F" transform="matrix(1,0,0,1,1325.7155827188203,304.66666666666663) translate(0 14.222222222222223)"/><use xlink:href="#G" transform="matrix(1,0,0,1,1325.7155827188203,304.66666666666663) translate(48.296296296296305 14.222222222222223)"/><path d="M890 637.5V336c0-3.3 2.7-6 6-6h204" stroke="#5e5e5e" stroke-width="2" fill="none"/><path d="M891 638.5h-2v-1.03h2z" stroke="#5e5e5e" stroke-width=".05" fill="#5e5e5e"/><path d="M1115.26 330l-14.26 4.64v-9.28z" stroke="#5e5e5e" stroke-width="2" fill="#5e5e5e"/><g><use xlink:href="#F" transform="matrix(1,0,0,1,923.9790800496424,300.0314117510424) translate(0 14.222222222222223)"/><use xlink:href="#C" transform="matrix(1,0,0,1,923.9790800496424,300.0314117510424) translate(48.296296296296305 14.222222222222223)"/><use xlink:href="#H" transform="matrix(1,0,0,1,923.9790800496424,300.0314117510424) translate(105.4814814814815 14.222222222222223)"/></g><path d="M1391.75 1044.13l-.92 3.42-2.53 2.53-3.42.92h-82.38v-2h82.12l2.64-.7 1.78-1.8.7-2.63v-32.68h2zM1461.5 871h-64.62l-2.64.7-1.78 1.8-.7 2.63v113.72h-2V875.87l.9-3.42 2.54-2.53 3.42-.92h64.88z" stroke="#5e5e5e" stroke-width=".05" fill="#5e5e5e"/><path d="M1302.53 1051h-1.03v-2h1.03z" fill="#5e5e5e"/><path d="M1302.55 1051.03h-1.08v-2.06h1.08zm-1.02-2v1.94h.97v-1.94z" stroke="#5e5e5e" stroke-width=".05" fill="#5e5e5e"/><path d="M1476.76 870l-14.26 4.64v-9.28z" fill="#5e5e5e"/><path d="M1480 870l-18.5 6v-12zm-16.5 3.26l10.03-3.26-10.03-3.26z" stroke="#5e5e5e" stroke-width=".05" fill="#5e5e5e"/><g><use xlink:href="#I" transform="matrix(1,0,0,1,1320.8734567901233,989.854526425955) translate(0 14.222222222222223)"/><use xlink:href="#A" transform="matrix(1,0,0,1,1320.8734567901233,989.854526425955) translate(101.33333333333334 14.222222222222223)"/></g><path d="M1574 650c19.88 0 36 17.9 36 40s-16.12 40-36 40h-108c-19.88 0-36-17.9-36-40s16.12-40 36-40z" stroke="#5e5e5e" stroke-width="3" fill="#e3fae3"/><g><use xlink:href="#J" transform="matrix(1,0,0,1,1435,655) translate(1.2025308641975505 27.34722222222222)"/><use xlink:href="#K" transform="matrix(1,0,0,1,1435,655) translate(52.461790123456794 27.34722222222222)"/><use xlink:href="#L" transform="matrix(1,0,0,1,1435,655) translate(122.48648148148146 27.34722222222222)"/><use xlink:href="#M" transform="matrix(1,0,0,1,1435,655) translate(29.814814814814824 48.68055555555555)"/><use xlink:href="#N" transform="matrix(1,0,0,1,1435,655) translate(111.5432098765432 48.68055555555555)"/></g><path d="M480 1006c0-3.3 2.7-6 6-6h168c3.3 0 6 2.7 6 6v88c0 3.3-2.7 6-6 6H486c-3.3 0-6-2.7-6-6z" stroke="#5e5e5e" stroke-width="3" fill="#ffdda6"/><path d="M500 1022.67c0-3.32 2.7-6 6-6h168c3.3 0 6 2.68 6 6v88c0 3.3-2.7 6-6 6H506c-3.3 0-6-2.7-6-6z" stroke="#5e5e5e" stroke-width="3" fill="#ffdda6"/><path d="M520 1040.67c0-3.32 2.7-6 6-6h168c3.3 0 6 2.68 6 6v92c0 3.3-2.7 6-6 6H526c-3.3 0-6-2.7-6-6z" stroke="#5e5e5e" stroke-width="3" fill="#ffdda6"/><g><use xlink:href="#O" transform="matrix(1,0,0,1,532,1046.6666666666665) translate(31.179012345679013 17.77777777777778)"/><use xlink:href="#P" transform="matrix(1,0,0,1,532,1046.6666666666665) translate(65.68518518518519 17.77777777777778)"/><use xlink:href="#Q" transform="matrix(1,0,0,1,532,1046.6666666666665) translate(23.864197530864196 44.44444444444444)"/><use xlink:href="#R" transform="matrix(1,0,0,1,532,1046.6666666666665) translate(50.31481481481482 71.11111111111111)"/></g><g transform="matrix(1,0,0,1,532,1046.6666666666665)"><a xlink:href="http://Cloud.gov" target="_blank"><path class="lucid-link lucid-hotspot lucid-overlay-hotspot" fill-opacity="0" d="M31.18 0h34.5v26.67H31.2z"/></a><a xlink:href="http://Cloud.gov" target="_blank"><path class="lucid-link lucid-hotspot lucid-overlay-hotspot" fill-opacity="0" d="M65.7 0H131v26.67H65.7z"/></a><a xlink:href="http://Cloud.gov" target="_blank"><path class="lucid-link lucid-hotspot lucid-overlay-hotspot" fill-opacity="0" d="M23.86 26.67h108.27v26.67H23.86z"/></a></g><path d="M890 742.5V864c0 3.3-2.7 6-6 6H576c-3.3 0-6 2.7-6 6v104" stroke="#5e5e5e" stroke-width="2" fill="none"/><path d="M891 742.53h-2v-1.03h2z" stroke="#5e5e5e" stroke-width=".05" fill="#5e5e5e"/><path d="M570 995.26L565.36 981h9.28z" stroke="#5e5e5e" stroke-width="2" fill="#5e5e5e"/><g><use xlink:href="#m" transform="matrix(1,0,0,1,714.1975308641976,844.6666666666667) translate(0 14.222222222222223)"/><use xlink:href="#n" transform="matrix(1,0,0,1,714.1975308641976,844.6666666666667) translate(64.14814814814815 14.222222222222223)"/></g><defs><path fill="#232f3e" d="M67-125c0 53 21 87 73 88 37 1 54-22 65-47l45 17C233-25 199 4 140 4 58 4 20-42 15-125 8-235 124-281 211-232c18 10 29 29 36 50l-46 12c-8-25-30-41-62-41-52 0-71 34-72 86" id="S"/><path fill="#232f3e" d="M25 0v-261h50V0H25" id="T"/><path fill="#232f3e" d="M110-194c64 0 96 36 96 99 0 64-35 99-97 99-61 0-95-36-95-99 0-62 34-99 96-99zm-1 164c35 0 45-28 45-65 0-40-10-65-43-65-34 0-45 26-45 65 0 36 10 65 43 65" id="U"/><path fill="#232f3e" d="M85 4C-2 5 27-109 22-190h50c7 57-23 150 33 157 60-5 35-97 40-157h50l1 190h-47c-2-12 1-28-3-38-12 25-28 42-61 42" id="V"/><path fill="#232f3e" d="M88-194c31-1 46 15 58 34l-1-101h50l1 261h-48c-2-10 0-23-3-31C134-8 116 4 84 4 32 4 16-41 15-95c0-56 19-97 73-99zm17 164c33 0 40-30 41-66 1-37-9-64-41-64s-38 30-39 65c0 43 13 65 39 65" id="W"/><g id="a"><use transform="matrix(0.06234567901234567,0,0,0.06234567901234567,0,0)" xlink:href="#S"/><use transform="matrix(0.06234567901234567,0,0,0.06234567901234567,16.147530864197527,0)" xlink:href="#T"/><use transform="matrix(0.06234567901234567,0,0,0.06234567901234567,22.382098765432094,0)" xlink:href="#U"/><use transform="matrix(0.06234567901234567,0,0,0.06234567901234567,36.035802469135795,0)" xlink:href="#V"/><use transform="matrix(0.06234567901234567,0,0,0.06234567901234567,49.6895061728395,0)" xlink:href="#W"/></g><path fill="#232f3e" d="M76-208v77h127v40H76V0H24v-248h183v40H76" id="X"/><path fill="#232f3e" d="M135-194c87-1 58 113 63 194h-50c-7-57 23-157-34-157-59 0-34 97-39 157H25l-1-190h47c2 12-1 28 3 38 12-26 28-41 61-42" id="Y"/><path fill="#232f3e" d="M135-150c-39-12-60 13-60 57V0H25l-1-190h47c2 13-1 29 3 40 6-28 27-53 61-41v41" id="Z"/><path fill="#232f3e" d="M123 10C108 53 80 86 19 72V37c35 8 53-11 59-39L3-190h52l48 148c12-52 28-100 44-148h51" id="aa"/><g id="b"><use transform="matrix(0.06234567901234567,0,0,0.06234567901234567,0,0)" xlink:href="#X"/><use transform="matrix(0.06234567901234567,0,0,0.06234567901234567,13.653703703703702,0)" xlink:href="#U"/><use transform="matrix(0.06234567901234567,0,0,0.06234567901234567,27.307407407407403,0)" xlink:href="#V"/><use transform="matrix(0.06234567901234567,0,0,0.06234567901234567,40.96111111111111,0)" xlink:href="#Y"/><use transform="matrix(0.06234567901234567,0,0,0.06234567901234567,54.61481481481481,0)" xlink:href="#W"/><use transform="matrix(0.06234567901234567,0,0,0.06234567901234567,68.2685185185185,0)" xlink:href="#Z"/><use transform="matrix(0.06234567901234567,0,0,0.06234567901234567,76.9969135802469,0)" xlink:href="#aa"/></g><path fill="#232f3e" d="M67-93c0 74 22 123 53 168H70C40 30 18-18 18-93s22-123 52-168h50c-32 44-53 94-53 168" id="ab"/><path fill="#232f3e" d="M24 0v-54h51V0H24" id="ac"/><path fill="#232f3e" d="M195-6C206 82 75 100 31 46c-4-6-6-13-8-21l49-6c3 16 16 24 34 25 40 0 42-37 40-79-11 22-30 35-61 35-53 0-70-43-70-97 0-56 18-96 73-97 30 0 46 14 59 34l2-30h47zm-90-29c32 0 41-27 41-63 0-35-9-62-40-62-32 0-39 29-40 63 0 36 9 62 39 62" id="ad"/><path fill="#232f3e" d="M128 0H69L1-190h53L99-40l48-150h52" id="ae"/><path fill="#232f3e" d="M102-93c0 74-22 123-52 168H0C30 29 54-18 53-93c0-74-22-123-53-168h50c30 45 52 94 52 168" id="af"/><g id="c"><use transform="matrix(0.06234567901234567,0,0,0.06234567901234567,0,0)" xlink:href="#ab"/><use transform="matrix(0.06234567901234567,0,0,0.06234567901234567,7.4191358024691345,0)" xlink:href="#S"/><use transform="matrix(0.06234567901234567,0,0,0.06234567901234567,23.566666666666663,0)" xlink:href="#T"/><use transform="matrix(0.06234567901234567,0,0,0.06234567901234567,29.80123456790123,0)" xlink:href="#U"/><use transform="matrix(0.06234567901234567,0,0,0.06234567901234567,43.45493827160493,0)" xlink:href="#V"/><use transform="matrix(0.06234567901234567,0,0,0.06234567901234567,57.10864197530863,0)" xlink:href="#W"/><use transform="matrix(0.06234567901234567,0,0,0.06234567901234567,70.76234567901233,0)" xlink:href="#ac"/><use transform="matrix(0.06234567901234567,0,0,0.06234567901234567,76.9969135802469,0)" xlink:href="#ad"/><use transform="matrix(0.06234567901234567,0,0,0.06234567901234567,90.6506172839506,0)" xlink:href="#U"/><use transform="matrix(0.06234567901234567,0,0,0.06234567901234567,104.3043209876543,0)" xlink:href="#ae"/><use transform="matrix(0.06234567901234567,0,0,0.06234567901234567,116.77345679012342,0)" xlink:href="#af"/></g><path fill="#333" d="M24 0v-248h195v40H76v63h132v40H76v65h150V0H24" id="ag"/><path fill="#333" d="M25 0v-261h50V0H25" id="ah"/><path fill="#333" d="M133-34C117-15 103 5 69 4 32 3 11-16 11-54c-1-60 55-63 116-61 1-26-3-47-28-47-18 1-26 9-28 27l-52-2c7-38 36-58 82-57s74 22 75 68l1 82c-1 14 12 18 25 15v27c-30 8-71 5-69-32zm-48 3c29 0 43-24 42-57-32 0-66-3-65 30 0 17 8 27 23 27" id="ai"/><path fill="#333" d="M137-138c1-29-70-34-71-4 15 46 118 7 119 86 1 83-164 76-172 9l43-7c4 19 20 25 44 25 33 8 57-30 24-41C81-84 22-81 20-136c-2-80 154-74 161-7" id="aj"/><path fill="#333" d="M115-3C79 11 28 4 28-45v-112H4v-33h27l15-45h31v45h36v33H77v99c-1 23 16 31 38 25v30" id="ak"/><path fill="#333" d="M25-224v-37h50v37H25zM25 0v-190h50V0H25" id="al"/><path fill="#333" d="M190-63c-7 42-38 67-86 67-59 0-84-38-90-98-12-110 154-137 174-36l-49 2c-2-19-15-32-35-32-30 0-35 28-38 64-6 74 65 87 74 30" id="am"/><path fill="#333" d="M185-48c-13 30-37 53-82 52C43 2 14-33 14-96s30-98 90-98c62 0 83 45 84 108H66c0 31 8 55 39 56 18 0 30-7 34-22zm-45-69c5-46-57-63-70-21-2 6-4 13-4 21h74" id="an"/><path fill="#333" d="M135-150c-39-12-60 13-60 57V0H25l-1-190h47c2 13-1 29 3 40 6-28 27-53 61-41v41" id="ao"/><path fill="#333" d="M114-157C55-157 80-60 75 0H25v-261h50l-1 109c12-26 28-41 61-42 86-1 58 113 63 194h-50c-7-57 23-157-34-157" id="ap"/><g id="d"><use transform="matrix(0.06172839506172839,0,0,0.06172839506172839,0,0)" xlink:href="#ag"/><use transform="matrix(0.06172839506172839,0,0,0.06172839506172839,14.814814814814813,0)" xlink:href="#ah"/><use transform="matrix(0.06172839506172839,0,0,0.06172839506172839,20.98765432098765,0)" xlink:href="#ai"/><use transform="matrix(0.06172839506172839,0,0,0.06172839506172839,33.33333333333333,0)" xlink:href="#aj"/><use transform="matrix(0.06172839506172839,0,0,0.06172839506172839,45.679012345679006,0)" xlink:href="#ak"/><use transform="matrix(0.06172839506172839,0,0,0.06172839506172839,53.02469135802468,0)" xlink:href="#al"/><use transform="matrix(0.06172839506172839,0,0,0.06172839506172839,59.197530864197525,0)" xlink:href="#am"/><use transform="matrix(0.06172839506172839,0,0,0.06172839506172839,71.5432098765432,0)" xlink:href="#aj"/><use transform="matrix(0.06172839506172839,0,0,0.06172839506172839,83.88888888888889,0)" xlink:href="#an"/><use transform="matrix(0.06172839506172839,0,0,0.06172839506172839,96.23456790123457,0)" xlink:href="#ai"/><use transform="matrix(0.06172839506172839,0,0,0.06172839506172839,108.58024691358025,0)" xlink:href="#ao"/><use transform="matrix(0.06172839506172839,0,0,0.06172839506172839,117.22222222222223,0)" xlink:href="#am"/><use transform="matrix(0.06172839506172839,0,0,0.06172839506172839,129.5679012345679,0)" xlink:href="#ap"/></g><path fill="#333" d="M144 0l-44-69L55 0H2l70-98-66-92h53l41 62 40-62h54l-67 91 71 99h-54" id="aq"/><path fill="#333" d="M135-194c53 0 70 44 70 98 0 56-19 98-73 100-31 1-45-17-59-34 3 33 2 69 2 105H25l-1-265h48c2 10 0 23 3 31 11-24 29-35 60-35zM114-30c33 0 39-31 40-66 0-38-9-64-40-64-56 0-55 130 0 130" id="ar"/><path fill="#333" d="M110-194c64 0 96 36 96 99 0 64-35 99-97 99-61 0-95-36-95-99 0-62 34-99 96-99zm-1 164c35 0 45-28 45-65 0-40-10-65-43-65-34 0-45 26-45 65 0 36 10 65 43 65" id="as"/><g id="e"><use transform="matrix(0.06172839506172839,0,0,0.06172839506172839,0,0)" xlink:href="#ag"/><use transform="matrix(0.06172839506172839,0,0,0.06172839506172839,14.814814814814813,0)" xlink:href="#aq"/><use transform="matrix(0.06172839506172839,0,0,0.06172839506172839,27.160493827160494,0)" xlink:href="#ar"/><use transform="matrix(0.06172839506172839,0,0,0.06172839506172839,40.67901234567901,0)" xlink:href="#as"/><use transform="matrix(0.06172839506172839,0,0,0.06172839506172839,54.19753086419753,0)" xlink:href="#ao"/><use transform="matrix(0.06172839506172839,0,0,0.06172839506172839,62.839506172839506,0)" xlink:href="#ak"/><use transform="matrix(0.06172839506172839,0,0,0.06172839506172839,70.18518518518519,0)" xlink:href="#an"/><use transform="matrix(0.06172839506172839,0,0,0.06172839506172839,82.53086419753087,0)" xlink:href="#ao"/></g><path fill="#333" d="M240-174c0 40-23 61-54 70L253 0h-59l-57-94H76V0H24v-248c93 4 217-23 216 74zM76-134c48-2 112 12 112-38 0-48-66-32-112-35v73" id="at"/><path fill="#333" d="M88-194c31-1 46 15 58 34l-1-101h50l1 261h-48c-2-10 0-23-3-31C134-8 116 4 84 4 32 4 16-41 15-95c0-56 19-97 73-99zm17 164c33 0 40-30 41-66 1-37-9-64-41-64s-38 30-39 65c0 43 13 65 39 65" id="au"/><path fill="#333" d="M14-72v-43h91v43H14" id="av"/><g id="f"><use transform="matrix(0.06172839506172839,0,0,0.06172839506172839,0,0)" xlink:href="#at"/><use transform="matrix(0.06172839506172839,0,0,0.06172839506172839,15.987654320987653,0)" xlink:href="#an"/><use transform="matrix(0.06172839506172839,0,0,0.06172839506172839,28.333333333333332,0)" xlink:href="#au"/><use transform="matrix(0.06172839506172839,0,0,0.06172839506172839,41.85185185185185,0)" xlink:href="#al"/><use transform="matrix(0.06172839506172839,0,0,0.06172839506172839,48.02469135802469,0)" xlink:href="#aj"/><use transform="matrix(0.06172839506172839,0,0,0.06172839506172839,60.37037037037037,0)" xlink:href="#av"/><use transform="matrix(0.06172839506172839,0,0,0.06172839506172839,67.71604938271605,0)" xlink:href="#ag"/><use transform="matrix(0.06172839506172839,0,0,0.06172839506172839,82.53086419753086,0)" xlink:href="#aq"/><use transform="matrix(0.06172839506172839,0,0,0.06172839506172839,94.87654320987654,0)" xlink:href="#ar"/><use transform="matrix(0.06172839506172839,0,0,0.06172839506172839,108.39506172839506,0)" xlink:href="#as"/><use transform="matrix(0.06172839506172839,0,0,0.06172839506172839,121.91358024691358,0)" xlink:href="#ao"/><use transform="matrix(0.06172839506172839,0,0,0.06172839506172839,130.55555555555554,0)" xlink:href="#ak"/><use transform="matrix(0.06172839506172839,0,0,0.06172839506172839,137.9012345679012,0)" xlink:href="#an"/><use transform="matrix(0.06172839506172839,0,0,0.06172839506172839,150.24691358024688,0)" xlink:href="#ao"/></g><path fill="#333" d="M199 0l-22-63H83L61 0H9l90-248h61L250 0h-51zm-33-102l-36-108c-10 38-24 72-36 108h72" id="aw"/><path fill="#333" d="M220-157c-53 9-28 100-34 157h-49v-107c1-27-5-49-29-50C55-147 81-57 75 0H25l-1-190h47c2 12-1 28 3 38 10-53 101-56 108 0 13-22 24-43 59-42 82 1 51 116 57 194h-49v-107c-1-25-5-48-29-50" id="ax"/><path fill="#333" d="M135-194c87-1 58 113 63 194h-50c-7-57 23-157-34-157-59 0-34 97-39 157H25l-1-190h47c2 12-1 28 3 38 12-26 28-41 61-42" id="ay"/><path fill="#333" d="M195-6C206 82 75 100 31 46c-4-6-6-13-8-21l49-6c3 16 16 24 34 25 40 0 42-37 40-79-11 22-30 35-61 35-53 0-70-43-70-97 0-56 18-96 73-97 30 0 46 14 59 34l2-30h47zm-90-29c32 0 41-27 41-63 0-35-9-62-40-62-32 0-39 29-40 63 0 36 9 62 39 62" id="az"/><g id="g"><use transform="matrix(0.06172839506172839,0,0,0.06172839506172839,0,0)" xlink:href="#aw"/><use transform="matrix(0.06172839506172839,0,0,0.06172839506172839,15.987654320987653,0)" xlink:href="#ah"/><use transform="matrix(0.06172839506172839,0,0,0.06172839506172839,22.160493827160494,0)" xlink:href="#an"/><use transform="matrix(0.06172839506172839,0,0,0.06172839506172839,34.50617283950617,0)" xlink:href="#ao"/><use transform="matrix(0.06172839506172839,0,0,0.06172839506172839,43.148148148148145,0)" xlink:href="#ak"/><use transform="matrix(0.06172839506172839,0,0,0.06172839506172839,50.49382716049382,0)" xlink:href="#ax"/><use transform="matrix(0.06172839506172839,0,0,0.06172839506172839,70.24691358024691,0)" xlink:href="#ai"/><use transform="matrix(0.06172839506172839,0,0,0.06172839506172839,82.5925925925926,0)" xlink:href="#ay"/><use transform="matrix(0.06172839506172839,0,0,0.06172839506172839,96.11111111111111,0)" xlink:href="#ai"/><use transform="matrix(0.06172839506172839,0,0,0.06172839506172839,108.4567901234568,0)" xlink:href="#az"/><use transform="matrix(0.06172839506172839,0,0,0.06172839506172839,121.97530864197532,0)" xlink:href="#an"/><use transform="matrix(0.06172839506172839,0,0,0.06172839506172839,134.320987654321,0)" xlink:href="#ao"/></g><path fill="#333" d="M24-248c93 1 206-16 204 79-1 75-69 88-152 82V0H24v-248zm52 121c47 0 100 7 100-41 0-47-54-39-100-39v80" id="aA"/><path fill="#333" d="M85 4C-2 5 27-109 22-190h50c7 57-23 150 33 157 60-5 35-97 40-157h50l1 190h-47c-2-12 1-28-3-38-12 25-28 42-61 42" id="aB"/><g id="h"><use transform="matrix(0.06172839506172839,0,0,0.06172839506172839,0,0)" xlink:href="#aA"/><use transform="matrix(0.06172839506172839,0,0,0.06172839506172839,14.814814814814813,0)" xlink:href="#ao"/><use transform="matrix(0.06172839506172839,0,0,0.06172839506172839,23.456790123456788,0)" xlink:href="#as"/><use transform="matrix(0.06172839506172839,0,0,0.06172839506172839,36.9753086419753,0)" xlink:href="#ax"/><use transform="matrix(0.06172839506172839,0,0,0.06172839506172839,56.72839506172839,0)" xlink:href="#an"/><use transform="matrix(0.06172839506172839,0,0,0.06172839506172839,69.07407407407408,0)" xlink:href="#ak"/><use transform="matrix(0.06172839506172839,0,0,0.06172839506172839,76.41975308641976,0)" xlink:href="#ap"/><use transform="matrix(0.06172839506172839,0,0,0.06172839506172839,89.93827160493828,0)" xlink:href="#an"/><use transform="matrix(0.06172839506172839,0,0,0.06172839506172839,102.28395061728396,0)" xlink:href="#aB"/><use transform="matrix(0.06172839506172839,0,0,0.06172839506172839,115.80246913580248,0)" xlink:href="#aj"/></g><path fill="#333" d="M275 0h-61l-44-196L126 0H64L0-248h53L97-49l45-199h58l43 199 44-199h52" id="aC"/><path fill="#333" d="M231 0h-52l-39-155L100 0H48L-1-190h46L77-45c9-52 24-97 36-145h53l37 145 32-145h46" id="aD"/><g id="i"><use transform="matrix(0.06172839506172839,0,0,0.06172839506172839,0,0)" xlink:href="#aC"/><use transform="matrix(0.06172839506172839,0,0,0.06172839506172839,20.123456790123456,0)" xlink:href="#ai"/><use transform="matrix(0.06172839506172839,0,0,0.06172839506172839,32.46913580246913,0)" xlink:href="#ak"/><use transform="matrix(0.06172839506172839,0,0,0.06172839506172839,39.81481481481481,0)" xlink:href="#am"/><use transform="matrix(0.06172839506172839,0,0,0.06172839506172839,52.16049382716049,0)" xlink:href="#ap"/><use transform="matrix(0.06172839506172839,0,0,0.06172839506172839,65.679012345679,0)" xlink:href="#ak"/><use transform="matrix(0.06172839506172839,0,0,0.06172839506172839,73.02469135802468,0)" xlink:href="#as"/><use transform="matrix(0.06172839506172839,0,0,0.06172839506172839,86.5432098765432,0)" xlink:href="#aD"/><use transform="matrix(0.06172839506172839,0,0,0.06172839506172839,103.82716049382715,0)" xlink:href="#an"/><use transform="matrix(0.06172839506172839,0,0,0.06172839506172839,116.17283950617283,0)" xlink:href="#ao"/></g><path fill="#333" d="M67-125c0 53 21 87 73 88 37 1 54-22 65-47l45 17C233-25 199 4 140 4 58 4 20-42 15-125 8-235 124-281 211-232c18 10 29 29 36 50l-46 12c-8-25-30-41-62-41-52 0-71 34-72 86" id="aE"/><g id="j"><use transform="matrix(0.06172839506172839,0,0,0.06172839506172839,0,0)" xlink:href="#aE"/><use transform="matrix(0.06172839506172839,0,0,0.06172839506172839,15.987654320987653,0)" xlink:href="#as"/><use transform="matrix(0.06172839506172839,0,0,0.06172839506172839,29.50617283950617,0)" xlink:href="#ao"/><use transform="matrix(0.06172839506172839,0,0,0.06172839506172839,38.148148148148145,0)" xlink:href="#ak"/><use transform="matrix(0.06172839506172839,0,0,0.06172839506172839,45.49382716049382,0)" xlink:href="#an"/><use transform="matrix(0.06172839506172839,0,0,0.06172839506172839,57.8395061728395,0)" xlink:href="#aq"/></g><path fill="#333" d="M67-125c0 54 23 88 75 88 28 0 53-7 68-21v-34h-60v-39h108v91C232-14 192 4 140 4 58 4 20-42 15-125 8-236 126-280 215-234c19 10 29 26 37 47l-47 15c-11-23-29-39-63-39-53 1-75 33-75 86" id="aF"/><path fill="#333" d="M121-226c-27-7-43 5-38 36h38v33H83V0H34v-157H6v-33h28c-9-59 32-81 87-68v32" id="aG"/><g id="k"><use transform="matrix(0.06172839506172839,0,0,0.06172839506172839,0,0)" xlink:href="#aF"/><use transform="matrix(0.06172839506172839,0,0,0.06172839506172839,17.28395061728395,0)" xlink:href="#ao"/><use transform="matrix(0.06172839506172839,0,0,0.06172839506172839,25.925925925925924,0)" xlink:href="#ai"/><use transform="matrix(0.06172839506172839,0,0,0.06172839506172839,38.2716049382716,0)" xlink:href="#aG"/><use transform="matrix(0.06172839506172839,0,0,0.06172839506172839,45.61728395061728,0)" xlink:href="#ai"/><use transform="matrix(0.06172839506172839,0,0,0.06172839506172839,57.962962962962955,0)" xlink:href="#ay"/><use transform="matrix(0.06172839506172839,0,0,0.06172839506172839,71.48148148148147,0)" xlink:href="#ai"/></g><path fill="#333" d="M195 0l-88-114-31 24V0H24v-248h52v113l112-113h60L142-143 257 0h-62" id="aH"/><path fill="#333" d="M135-194c52 0 70 43 70 98 0 56-19 99-73 100-30 1-46-15-58-35L72 0H24l1-261h50v104c11-23 29-37 60-37zM114-30c31 0 40-27 40-66 0-37-7-63-39-63s-41 28-41 65c0 36 8 64 40 64" id="aI"/><g id="l"><use transform="matrix(0.06172839506172839,0,0,0.06172839506172839,0,0)" xlink:href="#aH"/><use transform="matrix(0.06172839506172839,0,0,0.06172839506172839,15.987654320987653,0)" xlink:href="#al"/><use transform="matrix(0.06172839506172839,0,0,0.06172839506172839,22.160493827160494,0)" xlink:href="#aI"/><use transform="matrix(0.06172839506172839,0,0,0.06172839506172839,35.67901234567901,0)" xlink:href="#ai"/><use transform="matrix(0.06172839506172839,0,0,0.06172839506172839,48.02469135802469,0)" xlink:href="#ay"/><use transform="matrix(0.06172839506172839,0,0,0.06172839506172839,61.54320987654321,0)" xlink:href="#ai"/></g><path fill="#333" d="M169-182c-1-43-94-46-97-3 18 66 151 10 154 114 3 95-165 93-204 36-6-8-10-19-12-30l50-8c3 46 112 56 116 5-17-69-150-10-154-114-4-87 153-88 188-35 5 8 8 18 10 28" id="aJ"/><g id="m"><use transform="matrix(0.04938271604938272,0,0,0.04938271604938272,0,0)" xlink:href="#aJ"/><use transform="matrix(0.04938271604938272,0,0,0.04938271604938272,11.851851851851853,0)" xlink:href="#am"/><use transform="matrix(0.04938271604938272,0,0,0.04938271604938272,21.7283950617284,0)" xlink:href="#ao"/><use transform="matrix(0.04938271604938272,0,0,0.04938271604938272,28.64197530864198,0)" xlink:href="#ai"/><use transform="matrix(0.04938271604938272,0,0,0.04938271604938272,38.518518518518526,0)" xlink:href="#ar"/><use transform="matrix(0.04938271604938272,0,0,0.04938271604938272,49.33333333333334,0)" xlink:href="#an"/></g><path fill="#333" d="M230 0l2-204L168 0h-37L68-204 70 0H24v-248h70l56 185 57-185h69V0h-46" id="aK"/><g id="n"><use transform="matrix(0.04938271604938272,0,0,0.04938271604938272,0,0)" xlink:href="#aK"/><use transform="matrix(0.04938271604938272,0,0,0.04938271604938272,14.765432098765434,0)" xlink:href="#an"/><use transform="matrix(0.04938271604938272,0,0,0.04938271604938272,24.641975308641978,0)" xlink:href="#ak"/><use transform="matrix(0.04938271604938272,0,0,0.04938271604938272,30.518518518518523,0)" xlink:href="#ao"/><use transform="matrix(0.04938271604938272,0,0,0.04938271604938272,37.4320987654321,0)" xlink:href="#al"/><use transform="matrix(0.04938271604938272,0,0,0.04938271604938272,42.370370370370374,0)" xlink:href="#am"/><use transform="matrix(0.04938271604938272,0,0,0.04938271604938272,52.24691358024692,0)" xlink:href="#aj"/></g><path fill="#333" d="M212-179c-10-28-35-45-73-45-59 0-87 40-87 99 0 60 29 101 89 101 43 0 62-24 78-52l27 14C228-24 195 4 139 4 59 4 22-46 18-125c-6-104 99-153 187-111 19 9 31 26 39 46" id="aL"/><path fill="#333" d="M24 0v-261h32V0H24" id="aM"/><path fill="#333" d="M100-194c62-1 85 37 85 99 1 63-27 99-86 99S16-35 15-95c0-66 28-99 85-99zM99-20c44 1 53-31 53-75 0-43-8-75-51-75s-53 32-53 75 10 74 51 75" id="aN"/><path fill="#333" d="M84 4C-5 8 30-112 23-190h32v120c0 31 7 50 39 49 72-2 45-101 50-169h31l1 190h-30c-1-10 1-25-2-33-11 22-28 36-60 37" id="aO"/><path fill="#333" d="M85-194c31 0 48 13 60 33l-1-100h32l1 261h-30c-2-10 0-23-3-31C134-8 116 4 85 4 32 4 16-35 15-94c0-66 23-100 70-100zm9 24c-40 0-46 34-46 75 0 40 6 74 45 74 42 0 51-32 51-76 0-42-9-74-50-73" id="aP"/><path fill="#333" d="M33 0v-38h34V0H33" id="aQ"/><path fill="#333" d="M177-190C167-65 218 103 67 71c-23-6-38-20-44-43l32-5c15 47 100 32 89-28v-30C133-14 115 1 83 1 29 1 15-40 15-95c0-56 16-97 71-98 29-1 48 16 59 35 1-10 0-23 2-32h30zM94-22c36 0 50-32 50-73 0-42-14-75-50-75-39 0-46 34-46 75s6 73 46 73" id="aR"/><path fill="#333" d="M108 0H70L1-190h34L89-25l56-165h34" id="aS"/><path fill="#333" d="M16-82v-28h88v28H16" id="aT"/><path fill="#333" d="M160-131c35 5 61 23 61 61C221 17 115-2 30 0v-248c76 3 177-17 177 60 0 33-19 50-47 57zm-97-11c50-1 110 9 110-42 0-47-63-36-110-37v79zm0 115c55-2 124 14 124-45 0-56-70-42-124-44v89" id="aU"/><path fill="#333" d="M114-163C36-179 61-72 57 0H25l-1-190h30c1 12-1 29 2 39 6-27 23-49 58-41v29" id="aV"/><path fill="#333" d="M143 0L79-87 56-68V0H24v-261h32v163l83-92h37l-77 82L181 0h-38" id="aW"/><path fill="#333" d="M100-194c63 0 86 42 84 106H49c0 40 14 67 53 68 26 1 43-12 49-29l28 8c-11 28-37 45-77 45C44 4 14-33 15-96c1-61 26-98 85-98zm52 81c6-60-76-77-97-28-3 7-6 17-6 28h103" id="aX"/><g id="o"><use transform="matrix(0.055555555555555546,0,0,0.055555555555555546,0,0)" xlink:href="#aL"/><use transform="matrix(0.055555555555555546,0,0,0.055555555555555546,14.388888888888886,0)" xlink:href="#aM"/><use transform="matrix(0.055555555555555546,0,0,0.055555555555555546,18.777777777777775,0)" xlink:href="#aN"/><use transform="matrix(0.055555555555555546,0,0,0.055555555555555546,29.888888888888882,0)" xlink:href="#aO"/><use transform="matrix(0.055555555555555546,0,0,0.055555555555555546,40.99999999999999,0)" xlink:href="#aP"/><use transform="matrix(0.055555555555555546,0,0,0.055555555555555546,52.1111111111111,0)" xlink:href="#aQ"/><use transform="matrix(0.055555555555555546,0,0,0.055555555555555546,57.66666666666666,0)" xlink:href="#aR"/><use transform="matrix(0.055555555555555546,0,0,0.055555555555555546,68.77777777777777,0)" xlink:href="#aN"/><use transform="matrix(0.055555555555555546,0,0,0.055555555555555546,79.88888888888889,0)" xlink:href="#aS"/><use transform="matrix(0.055555555555555546,0,0,0.055555555555555546,89.88888888888889,0)" xlink:href="#aT"/><use transform="matrix(0.055555555555555546,0,0,0.055555555555555546,96.5,0)" xlink:href="#aU"/><use transform="matrix(0.055555555555555546,0,0,0.055555555555555546,109.83333333333333,0)" xlink:href="#aV"/><use transform="matrix(0.055555555555555546,0,0,0.055555555555555546,116.44444444444444,0)" xlink:href="#aN"/><use transform="matrix(0.055555555555555546,0,0,0.055555555555555546,127.55555555555556,0)" xlink:href="#aW"/><use transform="matrix(0.055555555555555546,0,0,0.055555555555555546,137.55555555555554,0)" xlink:href="#aX"/><use transform="matrix(0.055555555555555546,0,0,0.055555555555555546,148.66666666666666,0)" xlink:href="#aV"/><use transform="matrix(0.055555555555555546,0,0,0.055555555555555546,155.27777777777777,0)" xlink:href="#aX"/><use transform="matrix(0.055555555555555546,0,0,0.055555555555555546,166.38888888888889,0)" xlink:href="#aP"/></g><path fill="#333" d="M185-189c-5-48-123-54-124 2 14 75 158 14 163 119 3 78-121 87-175 55-17-10-28-26-33-46l33-7c5 56 141 63 141-1 0-78-155-14-162-118-5-82 145-84 179-34 5 7 8 16 11 25" id="aY"/><path fill="#333" d="M126-127c33 6 58 20 58 59 0 88-139 92-164 29-3-8-5-16-6-25l32-3c6 27 21 44 54 44 32 0 52-15 52-46 0-38-36-46-79-43v-28c39 1 72-4 72-42 0-27-17-43-46-43-28 0-47 15-49 41l-32-3c6-42 35-63 81-64 48-1 79 21 79 65 0 36-21 52-52 59" id="aZ"/><g id="p"><use transform="matrix(0.055555555555555546,0,0,0.055555555555555546,0,0)" xlink:href="#aY"/><use transform="matrix(0.055555555555555546,0,0,0.055555555555555546,13.33333333333333,0)" xlink:href="#aZ"/></g><path fill="#333" d="M96-169c-40 0-48 33-48 73s9 75 48 75c24 0 41-14 43-38l32 2c-6 37-31 61-74 61-59 0-76-41-82-99-10-93 101-131 147-64 4 7 5 14 7 22l-32 3c-4-21-16-35-41-35" id="ba"/><path fill="#333" d="M59-47c-2 24 18 29 38 22v24C64 9 27 4 27-40v-127H5v-23h24l9-43h21v43h35v23H59v120" id="bb"/><g id="q"><use transform="matrix(0.055555555555555546,0,0,0.055555555555555546,0,0)" xlink:href="#aU"/><use transform="matrix(0.055555555555555546,0,0,0.055555555555555546,13.33333333333333,0)" xlink:href="#aO"/><use transform="matrix(0.055555555555555546,0,0,0.055555555555555546,24.44444444444444,0)" xlink:href="#ba"/><use transform="matrix(0.055555555555555546,0,0,0.055555555555555546,34.444444444444436,0)" xlink:href="#aW"/><use transform="matrix(0.055555555555555546,0,0,0.055555555555555546,44.444444444444436,0)" xlink:href="#aX"/><use transform="matrix(0.055555555555555546,0,0,0.055555555555555546,55.55555555555554,0)" xlink:href="#bb"/></g><g id="r"><use transform="matrix(0.06172839506172839,0,0,0.06172839506172839,0,0)" xlink:href="#aL"/><use transform="matrix(0.06172839506172839,0,0,0.06172839506172839,15.987654320987653,0)" xlink:href="#aM"/><use transform="matrix(0.06172839506172839,0,0,0.06172839506172839,20.864197530864196,0)" xlink:href="#aN"/><use transform="matrix(0.06172839506172839,0,0,0.06172839506172839,33.20987654320987,0)" xlink:href="#aO"/><use transform="matrix(0.06172839506172839,0,0,0.06172839506172839,45.55555555555555,0)" xlink:href="#aP"/><use transform="matrix(0.06172839506172839,0,0,0.06172839506172839,57.90123456790123,0)" xlink:href="#aQ"/><use transform="matrix(0.06172839506172839,0,0,0.06172839506172839,64.07407407407406,0)" xlink:href="#aR"/><use transform="matrix(0.06172839506172839,0,0,0.06172839506172839,76.41975308641975,0)" xlink:href="#aN"/><use transform="matrix(0.06172839506172839,0,0,0.06172839506172839,88.76543209876543,0)" xlink:href="#aS"/><use transform="matrix(0.06172839506172839,0,0,0.06172839506172839,99.87654320987654,0)" xlink:href="#aT"/><use transform="matrix(0.06172839506172839,0,0,0.06172839506172839,107.22222222222223,0)" xlink:href="#aU"/><use transform="matrix(0.06172839506172839,0,0,0.06172839506172839,122.03703703703704,0)" xlink:href="#aV"/><use transform="matrix(0.06172839506172839,0,0,0.06172839506172839,129.3827160493827,0)" xlink:href="#aN"/><use transform="matrix(0.06172839506172839,0,0,0.06172839506172839,141.72839506172838,0)" xlink:href="#aW"/><use transform="matrix(0.06172839506172839,0,0,0.06172839506172839,152.8395061728395,0)" xlink:href="#aX"/><use transform="matrix(0.06172839506172839,0,0,0.06172839506172839,165.18518518518516,0)" xlink:href="#aV"/><use transform="matrix(0.06172839506172839,0,0,0.06172839506172839,172.53086419753083,0)" xlink:href="#aX"/><use transform="matrix(0.06172839506172839,0,0,0.06172839506172839,184.8765432098765,0)" xlink:href="#aP"/></g><path fill="#333" d="M30 0v-248h187v28H63v79h144v27H63v87h162V0H30" id="bc"/><path fill="#333" d="M141-36C126-15 110 5 73 4 37 3 15-17 15-53c-1-64 63-63 125-63 3-35-9-54-41-54-24 1-41 7-42 31l-33-3c5-37 33-52 76-52 45 0 72 20 72 64v82c-1 20 7 32 28 27v20c-31 9-61-2-59-35zM48-53c0 20 12 33 32 33 41-3 63-29 60-74-43 2-92-5-92 41" id="bd"/><path fill="#333" d="M135-143c-3-34-86-38-87 0 15 53 115 12 119 90S17 21 10-45l28-5c4 36 97 45 98 0-10-56-113-15-118-90-4-57 82-63 122-42 12 7 21 19 24 35" id="be"/><path fill="#333" d="M24-231v-30h32v30H24zM24 0v-190h32V0H24" id="bf"/><path fill="#333" d="M106-169C34-169 62-67 57 0H25v-261h32l-1 103c12-21 28-36 61-36 89 0 53 116 60 194h-32v-121c2-32-8-49-39-48" id="bg"/><g id="s"><use transform="matrix(0.06172839506172839,0,0,0.06172839506172839,0,0)" xlink:href="#bc"/><use transform="matrix(0.06172839506172839,0,0,0.06172839506172839,14.814814814814813,0)" xlink:href="#aM"/><use transform="matrix(0.06172839506172839,0,0,0.06172839506172839,19.691358024691354,0)" xlink:href="#bd"/><use transform="matrix(0.06172839506172839,0,0,0.06172839506172839,32.03703703703703,0)" xlink:href="#be"/><use transform="matrix(0.06172839506172839,0,0,0.06172839506172839,43.14814814814814,0)" xlink:href="#bb"/><use transform="matrix(0.06172839506172839,0,0,0.06172839506172839,49.32098765432098,0)" xlink:href="#bf"/><use transform="matrix(0.06172839506172839,0,0,0.06172839506172839,54.197530864197525,0)" xlink:href="#aL"/><use transform="matrix(0.06172839506172839,0,0,0.06172839506172839,70.18518518518518,0)" xlink:href="#bd"/><use transform="matrix(0.06172839506172839,0,0,0.06172839506172839,82.53086419753086,0)" xlink:href="#ba"/><use transform="matrix(0.06172839506172839,0,0,0.06172839506172839,93.64197530864197,0)" xlink:href="#bg"/><use transform="matrix(0.06172839506172839,0,0,0.06172839506172839,105.98765432098766,0)" xlink:href="#aX"/></g><path fill="#333" d="M63-220v92h138v28H63V0H30v-248h175v28H63" id="bh"/><g id="t"><use transform="matrix(0.06172839506172839,0,0,0.06172839506172839,0,0)" xlink:href="#bh"/><use transform="matrix(0.06172839506172839,0,0,0.06172839506172839,13.518518518518517,0)" xlink:href="#aN"/><use transform="matrix(0.06172839506172839,0,0,0.06172839506172839,25.864197530864196,0)" xlink:href="#aV"/></g><path fill="#333" d="M233-177c-1 41-23 64-60 70L243 0h-38l-65-103H63V0H30v-248c88 3 205-21 203 71zM63-129c60-2 137 13 137-47 0-61-80-42-137-45v92" id="bi"/><g id="u"><use transform="matrix(0.06172839506172839,0,0,0.06172839506172839,0,0)" xlink:href="#bi"/><use transform="matrix(0.06172839506172839,0,0,0.06172839506172839,15.987654320987653,0)" xlink:href="#aX"/><use transform="matrix(0.06172839506172839,0,0,0.06172839506172839,28.333333333333332,0)" xlink:href="#aP"/><use transform="matrix(0.06172839506172839,0,0,0.06172839506172839,40.67901234567901,0)" xlink:href="#bf"/><use transform="matrix(0.06172839506172839,0,0,0.06172839506172839,45.55555555555556,0)" xlink:href="#be"/></g><g id="v"><use transform="matrix(0.06172839506172839,0,0,0.06172839506172839,0,0)" xlink:href="#bc"/><use transform="matrix(0.06172839506172839,0,0,0.06172839506172839,14.814814814814813,0)" xlink:href="#aM"/><use transform="matrix(0.06172839506172839,0,0,0.06172839506172839,19.691358024691354,0)" xlink:href="#bd"/><use transform="matrix(0.06172839506172839,0,0,0.06172839506172839,32.03703703703703,0)" xlink:href="#be"/><use transform="matrix(0.06172839506172839,0,0,0.06172839506172839,43.14814814814814,0)" xlink:href="#bb"/><use transform="matrix(0.06172839506172839,0,0,0.06172839506172839,49.32098765432098,0)" xlink:href="#bf"/><use transform="matrix(0.06172839506172839,0,0,0.06172839506172839,54.197530864197525,0)" xlink:href="#ba"/><use transform="matrix(0.06172839506172839,0,0,0.06172839506172839,65.30864197530863,0)" xlink:href="#be"/><use transform="matrix(0.06172839506172839,0,0,0.06172839506172839,76.41975308641975,0)" xlink:href="#aX"/><use transform="matrix(0.06172839506172839,0,0,0.06172839506172839,88.76543209876543,0)" xlink:href="#bd"/><use transform="matrix(0.06172839506172839,0,0,0.06172839506172839,101.11111111111111,0)" xlink:href="#aV"/><use transform="matrix(0.06172839506172839,0,0,0.06172839506172839,108.4567901234568,0)" xlink:href="#ba"/><use transform="matrix(0.06172839506172839,0,0,0.06172839506172839,119.56790123456791,0)" xlink:href="#bg"/></g><path fill="#333" d="M4 7l51-268h42L46 7H4" id="bj"/><path fill="#333" d="M147 0H94L2-248h55l64 206c17-72 42-137 63-206h54" id="bk"/><path fill="#333" d="M12 0v-35l95-120H19v-35h142v35L67-36h103V0H12" id="bl"/><g id="w"><use transform="matrix(0.04938271604938272,0,0,0.04938271604938272,0,0)" xlink:href="#at"/><use transform="matrix(0.04938271604938272,0,0,0.04938271604938272,12.790123456790125,0)" xlink:href="#an"/><use transform="matrix(0.04938271604938272,0,0,0.04938271604938272,22.66666666666667,0)" xlink:href="#ai"/><use transform="matrix(0.04938271604938272,0,0,0.04938271604938272,32.543209876543216,0)" xlink:href="#au"/><use transform="matrix(0.04938271604938272,0,0,0.04938271604938272,43.35802469135803,0)" xlink:href="#bj"/><use transform="matrix(0.04938271604938272,0,0,0.04938271604938272,48.296296296296305,0)" xlink:href="#bk"/><use transform="matrix(0.04938271604938272,0,0,0.04938271604938272,59.80246913580248,0)" xlink:href="#al"/><use transform="matrix(0.04938271604938272,0,0,0.04938271604938272,64.74074074074076,0)" xlink:href="#aj"/><use transform="matrix(0.04938271604938272,0,0,0.04938271604938272,74.6172839506173,0)" xlink:href="#aB"/><use transform="matrix(0.04938271604938272,0,0,0.04938271604938272,85.43209876543212,0)" xlink:href="#ai"/><use transform="matrix(0.04938271604938272,0,0,0.04938271604938272,95.30864197530866,0)" xlink:href="#ah"/><use transform="matrix(0.04938271604938272,0,0,0.04938271604938272,100.24691358024694,0)" xlink:href="#al"/><use transform="matrix(0.04938271604938272,0,0,0.04938271604938272,105.18518518518522,0)" xlink:href="#bl"/><use transform="matrix(0.04938271604938272,0,0,0.04938271604938272,114.0740740740741,0)" xlink:href="#an"/></g><path fill="#333" d="M24-248c120-7 223 5 221 122C244-46 201 0 124 0H24v-248zM76-40c74 7 117-18 117-86 0-67-45-88-117-82v168" id="bm"/><g id="y"><use transform="matrix(0.04938271604938272,0,0,0.04938271604938272,0,0)" xlink:href="#bm"/><use transform="matrix(0.04938271604938272,0,0,0.04938271604938272,12.790123456790125,0)" xlink:href="#ai"/><use transform="matrix(0.04938271604938272,0,0,0.04938271604938272,22.66666666666667,0)" xlink:href="#ak"/><use transform="matrix(0.04938271604938272,0,0,0.04938271604938272,28.54320987654322,0)" xlink:href="#ai"/></g><g id="z"><use transform="matrix(0.04938271604938272,0,0,0.04938271604938272,0,0)" xlink:href="#at"/><use transform="matrix(0.04938271604938272,0,0,0.04938271604938272,12.790123456790125,0)" xlink:href="#an"/><use transform="matrix(0.04938271604938272,0,0,0.04938271604938272,22.66666666666667,0)" xlink:href="#ai"/><use transform="matrix(0.04938271604938272,0,0,0.04938271604938272,32.543209876543216,0)" xlink:href="#au"/></g><g id="A"><use transform="matrix(0.04938271604938272,0,0,0.04938271604938272,0,0)" xlink:href="#bm"/><use transform="matrix(0.04938271604938272,0,0,0.04938271604938272,12.790123456790125,0)" xlink:href="#ai"/><use transform="matrix(0.04938271604938272,0,0,0.04938271604938272,22.66666666666667,0)" xlink:href="#ak"/><use transform="matrix(0.04938271604938272,0,0,0.04938271604938272,28.54320987654322,0)" xlink:href="#ai"/></g><g id="B"><use transform="matrix(0.04938271604938272,0,0,0.04938271604938272,0,0)" xlink:href="#aA"/><use transform="matrix(0.04938271604938272,0,0,0.04938271604938272,11.851851851851853,0)" xlink:href="#aB"/><use transform="matrix(0.04938271604938272,0,0,0.04938271604938272,22.666666666666668,0)" xlink:href="#aj"/><use transform="matrix(0.04938271604938272,0,0,0.04938271604938272,32.543209876543216,0)" xlink:href="#ap"/></g><g id="C"><use transform="matrix(0.04938271604938272,0,0,0.04938271604938272,0,0)" xlink:href="#aK"/><use transform="matrix(0.04938271604938272,0,0,0.04938271604938272,14.765432098765434,0)" xlink:href="#an"/><use transform="matrix(0.04938271604938272,0,0,0.04938271604938272,24.641975308641978,0)" xlink:href="#ak"/><use transform="matrix(0.04938271604938272,0,0,0.04938271604938272,30.518518518518523,0)" xlink:href="#ao"/><use transform="matrix(0.04938271604938272,0,0,0.04938271604938272,37.4320987654321,0)" xlink:href="#al"/><use transform="matrix(0.04938271604938272,0,0,0.04938271604938272,42.370370370370374,0)" xlink:href="#am"/></g><g id="D"><use transform="matrix(0.04938271604938272,0,0,0.04938271604938272,0,0)" xlink:href="#bm"/><use transform="matrix(0.04938271604938272,0,0,0.04938271604938272,12.790123456790125,0)" xlink:href="#ai"/><use transform="matrix(0.04938271604938272,0,0,0.04938271604938272,22.66666666666667,0)" xlink:href="#ak"/><use transform="matrix(0.04938271604938272,0,0,0.04938271604938272,28.54320987654322,0)" xlink:href="#ai"/></g><g id="E"><use transform="matrix(0.06172839506172839,0,0,0.06172839506172839,0,0)" xlink:href="#aY"/><use transform="matrix(0.06172839506172839,0,0,0.06172839506172839,14.814814814814813,0)" xlink:href="#aM"/><use transform="matrix(0.06172839506172839,0,0,0.06172839506172839,19.691358024691354,0)" xlink:href="#bd"/><use transform="matrix(0.06172839506172839,0,0,0.06172839506172839,32.03703703703703,0)" xlink:href="#ba"/><use transform="matrix(0.06172839506172839,0,0,0.06172839506172839,43.14814814814814,0)" xlink:href="#aW"/></g><g id="F"><use transform="matrix(0.04938271604938272,0,0,0.04938271604938272,0,0)" xlink:href="#aJ"/><use transform="matrix(0.04938271604938272,0,0,0.04938271604938272,11.851851851851853,0)" xlink:href="#an"/><use transform="matrix(0.04938271604938272,0,0,0.04938271604938272,21.7283950617284,0)" xlink:href="#ay"/><use transform="matrix(0.04938271604938272,0,0,0.04938271604938272,32.543209876543216,0)" xlink:href="#au"/></g><g id="G"><use transform="matrix(0.04938271604938272,0,0,0.04938271604938272,0,0)" xlink:href="#aw"/><use transform="matrix(0.04938271604938272,0,0,0.04938271604938272,12.790123456790125,0)" xlink:href="#ah"/><use transform="matrix(0.04938271604938272,0,0,0.04938271604938272,17.7283950617284,0)" xlink:href="#an"/><use transform="matrix(0.04938271604938272,0,0,0.04938271604938272,27.604938271604947,0)" xlink:href="#ao"/><use transform="matrix(0.04938271604938272,0,0,0.04938271604938272,34.518518518518526,0)" xlink:href="#ak"/><use transform="matrix(0.04938271604938272,0,0,0.04938271604938272,40.39506172839507,0)" xlink:href="#aj"/></g><g id="H"><use transform="matrix(0.04938271604938272,0,0,0.04938271604938272,0,0)" xlink:href="#aw"/><use transform="matrix(0.04938271604938272,0,0,0.04938271604938272,12.790123456790125,0)" xlink:href="#ah"/><use transform="matrix(0.04938271604938272,0,0,0.04938271604938272,17.7283950617284,0)" xlink:href="#ai"/><use transform="matrix(0.04938271604938272,0,0,0.04938271604938272,27.604938271604947,0)" xlink:href="#ao"/><use transform="matrix(0.04938271604938272,0,0,0.04938271604938272,34.518518518518526,0)" xlink:href="#ax"/><use transform="matrix(0.04938271604938272,0,0,0.04938271604938272,50.320987654320994,0)" xlink:href="#aj"/></g><path fill="#333" d="M140-251c80 0 125 45 125 126 0 70-33 111-92 124 6 28 34 38 68 31l-1 36C177 83 129 55 120 2 51-6 15-50 15-125c0-81 44-126 125-126zm-1 214c52 0 73-35 73-88 0-50-21-86-72-86-52 0-73 35-73 86s22 88 72 88" id="bn"/><path fill="#333" d="M123 10C108 53 80 86 19 72V37c35 8 53-11 59-39L3-190h52l48 148c12-52 28-100 44-148h51" id="bo"/><g id="I"><use transform="matrix(0.04938271604938272,0,0,0.04938271604938272,0,0)" xlink:href="#bk"/><use transform="matrix(0.04938271604938272,0,0,0.04938271604938272,11.506172839506174,0)" xlink:href="#al"/><use transform="matrix(0.04938271604938272,0,0,0.04938271604938272,16.444444444444446,0)" xlink:href="#an"/><use transform="matrix(0.04938271604938272,0,0,0.04938271604938272,26.32098765432099,0)" xlink:href="#aD"/><use transform="matrix(0.04938271604938272,0,0,0.04938271604938272,40.14814814814815,0)" xlink:href="#bj"/><use transform="matrix(0.04938271604938272,0,0,0.04938271604938272,45.086419753086425,0)" xlink:href="#bn"/><use transform="matrix(0.04938271604938272,0,0,0.04938271604938272,58.91358024691358,0)" xlink:href="#aB"/><use transform="matrix(0.04938271604938272,0,0,0.04938271604938272,69.72839506172839,0)" xlink:href="#an"/><use transform="matrix(0.04938271604938272,0,0,0.04938271604938272,79.60493827160494,0)" xlink:href="#ao"/><use transform="matrix(0.04938271604938272,0,0,0.04938271604938272,86.51851851851852,0)" xlink:href="#bo"/></g><g id="J"><use transform="matrix(0.049382716049382706,0,0,0.049382716049382706,0,0)" xlink:href="#aL"/><use transform="matrix(0.049382716049382706,0,0,0.049382716049382706,12.790123456790122,0)" xlink:href="#aM"/><use transform="matrix(0.049382716049382706,0,0,0.049382716049382706,16.691358024691354,0)" xlink:href="#aN"/><use transform="matrix(0.049382716049382706,0,0,0.049382716049382706,26.567901234567895,0)" xlink:href="#aO"/><use transform="matrix(0.049382716049382706,0,0,0.049382716049382706,36.444444444444436,0)" xlink:href="#aP"/></g><path fill="#333" d="M117-194c89-4 53 116 60 194h-32v-121c0-31-8-49-39-48C34-167 62-67 57 0H25l-1-190h30c1 10-1 24 2 32 11-22 29-35 61-36" id="bp"/><path fill="#333" d="M179-190L93 31C79 59 56 82 12 73V49c39 6 53-20 64-50L1-190h34L92-34l54-156h33" id="bq"/><g id="K"><use transform="matrix(0.049382716049382706,0,0,0.049382716049382706,0,0)" xlink:href="#bh"/><use transform="matrix(0.049382716049382706,0,0,0.049382716049382706,10.814814814814813,0)" xlink:href="#aN"/><use transform="matrix(0.049382716049382706,0,0,0.049382716049382706,20.691358024691354,0)" xlink:href="#aO"/><use transform="matrix(0.049382716049382706,0,0,0.049382716049382706,30.567901234567895,0)" xlink:href="#bp"/><use transform="matrix(0.049382716049382706,0,0,0.049382716049382706,40.444444444444436,0)" xlink:href="#aP"/><use transform="matrix(0.049382716049382706,0,0,0.049382716049382706,50.32098765432097,0)" xlink:href="#aV"/><use transform="matrix(0.049382716049382706,0,0,0.049382716049382706,56.19753086419752,0)" xlink:href="#bq"/></g><g id="L"><use transform="matrix(0.049382716049382706,0,0,0.049382716049382706,0,0)" xlink:href="#aL"/><use transform="matrix(0.049382716049382706,0,0,0.049382716049382706,12.790123456790122,0)" xlink:href="#aM"/><use transform="matrix(0.049382716049382706,0,0,0.049382716049382706,16.691358024691354,0)" xlink:href="#aN"/><use transform="matrix(0.049382716049382706,0,0,0.049382716049382706,26.567901234567895,0)" xlink:href="#aO"/><use transform="matrix(0.049382716049382706,0,0,0.049382716049382706,36.444444444444436,0)" xlink:href="#aP"/></g><g id="M"><use transform="matrix(0.049382716049382706,0,0,0.049382716049382706,0,0)" xlink:href="#aL"/><use transform="matrix(0.049382716049382706,0,0,0.049382716049382706,12.790123456790122,0)" xlink:href="#aN"/><use transform="matrix(0.049382716049382706,0,0,0.049382716049382706,22.666666666666664,0)" xlink:href="#bp"/><use transform="matrix(0.049382716049382706,0,0,0.049382716049382706,32.5432098765432,0)" xlink:href="#bb"/><use transform="matrix(0.049382716049382706,0,0,0.049382716049382706,37.481481481481474,0)" xlink:href="#aV"/><use transform="matrix(0.049382716049382706,0,0,0.049382716049382706,43.35802469135802,0)" xlink:href="#aN"/><use transform="matrix(0.049382716049382706,0,0,0.049382716049382706,53.234567901234556,0)" xlink:href="#aM"/><use transform="matrix(0.049382716049382706,0,0,0.049382716049382706,57.13580246913579,0)" xlink:href="#aM"/><use transform="matrix(0.049382716049382706,0,0,0.049382716049382706,61.037037037037024,0)" xlink:href="#aX"/><use transform="matrix(0.049382716049382706,0,0,0.049382716049382706,70.91358024691357,0)" xlink:href="#aV"/></g><path fill="#333" d="M205 0l-28-72H64L36 0H1l101-248h38L239 0h-34zm-38-99l-47-123c-12 45-31 82-46 123h93" id="br"/><path fill="#333" d="M30-248c87 1 191-15 191 75 0 78-77 80-158 76V0H30v-248zm33 125c57 0 124 11 124-50 0-59-68-47-124-48v98" id="bs"/><path fill="#333" d="M33 0v-248h34V0H33" id="bt"/><g id="N"><use transform="matrix(0.049382716049382706,0,0,0.049382716049382706,0,0)" xlink:href="#br"/><use transform="matrix(0.049382716049382706,0,0,0.049382716049382706,11.85185185185185,0)" xlink:href="#bs"/><use transform="matrix(0.049382716049382706,0,0,0.049382716049382706,23.7037037037037,0)" xlink:href="#bt"/></g><g id="O"><use transform="matrix(0.06172839506172839,0,0,0.06172839506172839,0,0)" xlink:href="#aw"/><use transform="matrix(0.06172839506172839,0,0,0.06172839506172839,15.987654320987653,0)" xlink:href="#ah"/><use transform="matrix(0.06172839506172839,0,0,0.06172839506172839,22.160493827160494,0)" xlink:href="#ah"/><path fill="#8080ff" d="M-1.1 1.2H35.6V3.5H-1.1z"/></g><path fill="#333" d="M140-251c80 0 125 45 125 126S219 4 139 4C58 4 15-44 15-125s44-126 125-126zm-1 214c52 0 73-35 73-88 0-50-21-86-72-86-52 0-73 35-73 86s22 88 72 88" id="bu"/><g id="P"><use transform="matrix(0.06172839506172839,0,0,0.06172839506172839,0,0)" xlink:href="#bu"/><use transform="matrix(0.06172839506172839,0,0,0.06172839506172839,17.28395061728395,0)" xlink:href="#ak"/><use transform="matrix(0.06172839506172839,0,0,0.06172839506172839,24.629629629629626,0)" xlink:href="#ap"/><use transform="matrix(0.06172839506172839,0,0,0.06172839506172839,38.148148148148145,0)" xlink:href="#an"/><use transform="matrix(0.06172839506172839,0,0,0.06172839506172839,50.49382716049382,0)" xlink:href="#ao"/><path fill="#8080ff" d="M-1.1 1.2h61.35V3.5H-1.1z"/></g><path fill="#333" d="M24 0v-54h51V0H24" id="bv"/><path fill="#333" d="M128 0H69L1-190h53L99-40l48-150h52" id="bw"/><g id="Q"><use transform="matrix(0.06172839506172839,0,0,0.06172839506172839,0,0)" xlink:href="#aE"/><use transform="matrix(0.06172839506172839,0,0,0.06172839506172839,15.987654320987653,0)" xlink:href="#ah"/><use transform="matrix(0.06172839506172839,0,0,0.06172839506172839,22.160493827160494,0)" xlink:href="#as"/><use transform="matrix(0.06172839506172839,0,0,0.06172839506172839,35.67901234567901,0)" xlink:href="#aB"/><use transform="matrix(0.06172839506172839,0,0,0.06172839506172839,49.19753086419753,0)" xlink:href="#au"/><use transform="matrix(0.06172839506172839,0,0,0.06172839506172839,62.71604938271605,0)" xlink:href="#bv"/><use transform="matrix(0.06172839506172839,0,0,0.06172839506172839,68.88888888888889,0)" xlink:href="#az"/><use transform="matrix(0.06172839506172839,0,0,0.06172839506172839,82.4074074074074,0)" xlink:href="#as"/><use transform="matrix(0.06172839506172839,0,0,0.06172839506172839,95.92592592592592,0)" xlink:href="#bw"/><path fill="#8080ff" d="M-1.1 1.2h110.48V3.5H-1.12z"/></g><g id="R"><use transform="matrix(0.06172839506172839,0,0,0.06172839506172839,0,0)" xlink:href="#aw"/><use transform="matrix(0.06172839506172839,0,0,0.06172839506172839,15.987654320987653,0)" xlink:href="#ar"/><use transform="matrix(0.06172839506172839,0,0,0.06172839506172839,29.50617283950617,0)" xlink:href="#ar"/><use transform="matrix(0.06172839506172839,0,0,0.06172839506172839,43.02469135802469,0)" xlink:href="#aj"/></g></defs></g></svg>